<?xml version="1.0" encoding="utf-8"?>
<!-- Generator: Adobe Illustrator 15.1.0, SVG Export Plug-In . SVG Version: 6.00 Build 0)  -->
<!DOCTYPE svg PUBLIC "-//W3C//DTD SVG 1.1//EN" "http://www.w3.org/Graphics/SVG/1.1/DTD/svg11.dtd">
<svg version="1.1" id="Calque_1" xmlns="http://www.w3.org/2000/svg" xmlns:xlink="http://www.w3.org/1999/xlink" x="0px" y="0px"
	 width="383.969px" height="119.504px" viewBox="0.521 73.687 383.969 119.504"
	 enable-background="new 0.521 73.687 383.969 119.504" xml:space="preserve">
<title>dewalgo-logo</title>
<path d="M0.535,192.967L37.029,73.939H66.73c2.048,0,3.62,0.224,4.982,0.895c1.355,0.685,2.258,1.594,3.18,2.502
	c0.686,1.118,1.125,2.055,1.356,3.396c0.23,1.132,0,2.265-0.231,3.173l-29.693,96.581c-0.462,1.133-1.133,2.265-1.817,3.635
	c-0.692,1.369-1.817,2.711-2.949,4.066c-1.132,1.356-2.726,2.502-4.767,3.411c-1.816,0.895-4.081,1.355-6.568,1.355H0.521
	L0.535,192.967z M50.643,83.891L20.257,182.54h8.616L59.26,83.891H50.643z"/>
<path d="M120.934,73.925l-3.18,10.203H100.52l-12.922,41.945h17.004l-2.949,9.979H84.648L70.364,182.75h17.233l-2.949,9.979H50.643
	L87.137,73.687h33.782L120.934,73.925z"/>
<path d="M104.832,192.967l23.803-119.028h16.325l-12.237,55.084l21.315-55.084h16.542l-12.237,55.084l21.315-55.084h16.534
	l-49.199,119.028h-16.542l8.387-42.183l-17.465,42.183H104.832z"/>
<path d="M241.771,85.945L209.136,192.73h-16.549l17.457-56.677h-8.848l-17.464,56.677H167.19l32.637-106.785
	c0.237-0.908,0.922-2.068,1.593-3.41c0.908-1.355,1.817-2.726,3.188-4.067c1.355-1.369,2.935-2.502,4.752-3.41
	c1.831-0.895,3.857-1.37,6.373-1.37h17.682c2.502,0,4.542,0.462,5.66,1.594c1.384,1.132,2.068,2.265,2.488,3.62
	c0.447,1.355,0.713,2.712,0.475,4.081c0,1.356,0,2.265-0.237,2.949L241.771,85.945z M212.77,126.282l12.915-42.378h-8.834
	l-12.942,42.378H212.77z"/>
<path d="M217.284,192.967l36.522-119.028h16.534L237.006,182.54h17.471l-3.187,10.203h-34.006V192.967z"/>
<path d="M301.859,126.282h19.722l-16.786,54.441c-0.225,0.685-0.672,1.816-1.342,3.172c-0.672,1.356-1.594,2.726-2.964,4.082
	c-1.342,1.355-2.935,2.487-4.752,3.62c-1.817,1.132-4.081,1.593-6.821,1.593h-17.918c-2.712,0-4.528-0.461-5.898-1.593
	c-1.118-1.133-2.041-2.265-2.488-3.62c-0.419-1.356-0.685-2.726-0.447-4.082c0.224-1.355,0.224-2.25,0.447-3.172l29.017-94.332
	c0.447-1.117,0.909-2.25,1.817-3.634c0.698-1.355,1.831-2.697,2.935-4.053c1.146-1.37,2.74-2.517,4.557-3.411
	c1.817-0.908,4.067-1.355,6.793-1.355h29.938l-3.187,10.203H309.1l-30.387,98.622h8.848l14.285-46.697h-3.201l3.201-9.756v-0.028
	H301.859z"/>
<path d="M381.444,75.281c1.37,0.895,2.041,2.041,2.488,3.41c0.447,1.356,0.698,2.698,0.476,4.067
	c-0.238,1.37-0.238,2.502-0.476,3.606l-29.003,94.345c-0.237,0.895-0.908,2.041-1.593,3.383c-0.909,1.384-1.817,2.726-3.173,4.081
	c-1.37,1.37-2.949,2.488-4.767,3.41c-1.831,0.895-3.871,1.37-6.359,1.37h-17.667c-2.726,0-4.543-0.476-5.898-1.594
	c-1.146-1.118-2.068-2.25-2.487-3.634c-0.447-1.342-0.699-2.697-0.476-4.053c0.237-1.37,0.237-2.265,0.476-3.188l29.002-94.331
	c0.461-1.132,0.908-2.25,1.817-3.62c0.713-1.355,1.816-2.711,2.949-4.081c1.132-1.355,2.711-2.488,4.528-3.41
	c1.817-0.895,4.081-1.342,6.807-1.342h17.485C378.258,73.939,380.075,74.386,381.444,75.281L381.444,75.281z M329.059,182.974h8.861
	l30.387-98.636h-8.862L329.059,182.974z"/>
</svg>
