<?xml version="1.0" encoding="utf-8"?>
<!-- Generator: Adobe Illustrator 15.1.0, SVG Export Plug-In . SVG Version: 6.00 Build 0)  -->
<!DOCTYPE svg PUBLIC "-//W3C//DTD SVG 1.1//EN" "http://www.w3.org/Graphics/SVG/1.1/DTD/svg11.dtd">
<svg version="1.1" id="Calque_1" xmlns="http://www.w3.org/2000/svg" xmlns:xlink="http://www.w3.org/1999/xlink" x="0px" y="0px"
	 width="406.239px" height="319.131px" viewBox="3.58 0.651 406.239 319.131" enable-background="new 3.58 0.651 406.239 319.131"
	 xml:space="preserve">
<title>dewalgo-logo</title>
<g>
	<path fill="#FFFFFF" d="M128.708,7.809l-37.313,91.87c47.594-0.243,109.332-5.501,193.813,24.889
		c-1.917-5.494-14.365-61.724-35.647-117.953c-34.704-8.362-75.115-7.898-120.821,1.195H128.708z"/>
	<path fill="#FFFFFF" d="M394.51,89.391l-47.373-17.455c-14.365,20.567-29.203,40.67-46.665,55.264
		c13.657,5.973,58.375,21.29,109.347,27.979l-11.946-62.203C396.664,91.781,395.483,90.585,394.51,89.391L394.51,89.391z"/>
	<path fill="#FFFFFF" d="M381.841,251.376l-5.737-58.14c-18.656-8.141-44.275-18.907-79.2-53.117
		c-2.626,21.29-10.767,89.016-4.543,113.646C328.73,260.477,361.989,255.683,381.841,251.376L381.841,251.376z"/>
	<path fill="#FFFFFF" d="M285.9,135.562c0,0-124.907-0.486-221.068,17.234L3.58,304c1.681-1.431,3.112-2.861,4.793-4.307
		c3.599-3.349,7.168-6.475,10.767-9.572c7.419-6.46,15.31-12.905,23.437-19.365c8.126-6.475,16.503-12.698,24.896-18.907
		c33.966-24.66,69.378-46.665,96.648-62.462c1.682-0.958,3.362-1.917,5.029-3.111c1.445-1.18,3.112-2.153,4.793-2.625
		c3.599-0.944,6.933-1.918,10.28-2.861c6.475-1.682,12.227-2.891,16.755-4.071c4.764-0.943,8.362-1.681,11.002-2.153
		c2.67-0.501,4.086-0.737,4.086-0.737s-0.959,0.959-2.626,2.876c-1.681,1.667-4.307,4.543-7.684,7.891
		c-3.348,3.363-7.168,7.434-11.961,11.977c-2.36,2.153-4.779,4.542-7.404,7.168c-1.194,1.18-2.876,2.152-4.558,2.86
		c-1.666,0.708-3.348,1.682-5.029,2.626c-26.548,15.574-61.473,37.344-94.495,61.266c-8.141,5.988-16.268,12.212-24.158,18.171
		c-7.905,6.224-15.56,12.448-22.492,18.672c-3.599,3.098-7.168,6.224-10.279,9.321c-1.195,0.943-2.168,2.153-3.349,3.127
		l207.176-71.768C241.418,215.478,259.117,178.371,285.9,135.562L285.9,135.562z"/>
</g>
</svg>
