<?xml version="1.0" encoding="utf-8"?>
<!-- Generator: Adobe Illustrator 15.1.0, SVG Export Plug-In . SVG Version: 6.00 Build 0)  -->
<!DOCTYPE svg PUBLIC "-//W3C//DTD SVG 1.1//EN" "http://www.w3.org/Graphics/SVG/1.1/DTD/svg11.dtd">
<svg version="1.1" id="Calque_1" xmlns="http://www.w3.org/2000/svg" xmlns:xlink="http://www.w3.org/1999/xlink" x="0px" y="0px"
	 width="26.898px" height="21.13px" viewBox="3.58 0.651 26.898 21.13" enable-background="new 3.58 0.651 26.898 21.13"
	 xml:space="preserve">
<title>dewalgo-logo</title>
<path d="M11.865,1.125L9.394,7.208c3.152-0.016,7.24-0.364,12.833,1.648c-0.127-0.364-0.951-4.087-2.36-7.81
	c-2.298-0.554-4.974-0.523-8,0.079H11.865z"/>
<path d="M29.465,6.527l-3.137-1.156c-0.951,1.362-1.934,2.693-3.09,3.659c0.904,0.396,3.865,1.41,7.24,1.853l-0.791-4.119
	C29.607,6.685,29.529,6.606,29.465,6.527L29.465,6.527z"/>
<path d="M28.626,17.252l-0.38-3.849c-1.236-0.539-2.932-1.252-5.244-3.517c-0.174,1.41-0.713,5.894-0.301,7.525
	C25.109,17.855,27.311,17.538,28.626,17.252L28.626,17.252z"/>
<path d="M22.273,9.584c0,0-8.27-0.032-14.638,1.141L3.58,20.737c0.111-0.095,0.206-0.19,0.317-0.285
	c0.238-0.222,0.475-0.429,0.713-0.634c0.491-0.428,1.014-0.855,1.552-1.283s1.093-0.84,1.648-1.252
	c2.249-1.632,4.594-3.089,6.4-4.135c0.111-0.063,0.222-0.127,0.333-0.206c0.095-0.079,0.206-0.143,0.317-0.174
	c0.238-0.063,0.459-0.127,0.681-0.19c0.428-0.111,0.809-0.19,1.109-0.269c0.316-0.063,0.554-0.111,0.729-0.143
	c0.176-0.032,0.27-0.048,0.27-0.048s-0.063,0.063-0.174,0.19c-0.111,0.111-0.285,0.301-0.508,0.523
	c-0.222,0.222-0.475,0.491-0.792,0.792c-0.157,0.143-0.317,0.301-0.491,0.475c-0.079,0.079-0.19,0.143-0.301,0.19
	c-0.111,0.047-0.222,0.111-0.333,0.174c-1.758,1.03-4.071,2.472-6.257,4.056c-0.539,0.396-1.077,0.808-1.6,1.203
	c-0.523,0.412-1.03,0.824-1.489,1.236c-0.238,0.206-0.475,0.412-0.681,0.618c-0.079,0.063-0.143,0.143-0.222,0.206l13.718-4.752
	C19.328,14.875,20.5,12.419,22.273,9.584L22.273,9.584z"/>
</svg>
