<?xml version="1.0" encoding="utf-8"?>
<!-- Generator: Adobe Illustrator 15.1.0, SVG Export Plug-In . SVG Version: 6.00 Build 0)  -->
<!DOCTYPE svg PUBLIC "-//W3C//DTD SVG 1.1//EN" "http://www.w3.org/Graphics/SVG/1.1/DTD/svg11.dtd">
<svg version="1.1" id="Calque_1" xmlns="http://www.w3.org/2000/svg" xmlns:xlink="http://www.w3.org/1999/xlink" x="0px" y="0px"
	 width="520.588px" height="529.376px" viewBox="17.255 13.244 520.588 529.376"
	 enable-background="new 17.255 13.244 520.588 529.376" xml:space="preserve">
<title>dewalgo-logo</title>
<path fill="#FFFFFF" d="M214.371,21.48l-42.937,105.711c54.773-0.28,125.813-6.33,223.005,28.638
	c-2.206-6.321-16.529-71.022-41.018-135.724c-39.933-9.623-86.441-9.088-139.025,1.375H214.371z"/>
<path fill="#FFFFFF" d="M520.228,115.354L465.717,95.27c-16.529,23.665-33.602,46.797-53.695,63.589
	c15.715,6.873,67.171,24.498,125.821,32.194l-13.746-71.575c-1.392-1.374-2.749-2.749-3.869-4.141V115.354z"/>
<path fill="#FFFFFF" d="M505.649,301.736l-6.602-66.891c-21.485-9.359-50.946-21.757-91.133-61.12
	c-3.021,24.506-12.39,102.418-5.228,130.776c41.85,7.722,80.103,2.206,102.962-2.749V301.736z"/>
<path fill="#FFFFFF" d="M395.254,168.481c0,0-143.708-0.561-254.384,19.83L70.399,362.305c1.926-1.646,3.581-3.31,5.507-4.955
	c4.141-3.853,8.256-7.45,12.389-11.015c8.536-7.433,17.624-14.866,26.975-22.3c9.352-7.433,18.99-14.595,28.639-21.756
	c39.084-28.367,79.831-53.688,111.218-71.863c1.927-1.095,3.861-2.206,5.787-3.581c1.655-1.366,3.581-2.486,5.507-3.021
	c4.142-1.095,7.977-2.206,11.838-3.301c7.441-1.935,14.052-3.31,19.278-4.676c5.499-1.095,9.623-1.926,12.66-2.486
	c3.056-0.56,4.685-0.831,4.685-0.831s-1.104,1.095-3.021,3.301c-1.935,1.926-4.955,5.227-8.824,9.088
	c-3.853,3.853-8.248,8.536-13.764,13.764c-2.732,2.485-5.507,5.227-8.527,8.256c-1.375,1.366-3.301,2.486-5.236,3.301
	c-1.926,0.814-3.852,1.927-5.786,3.021c-30.548,17.904-70.743,42.953-108.732,70.48c-9.368,6.873-18.719,14.034-27.807,20.908
	c-9.088,7.161-17.896,14.323-25.872,21.484c-4.141,3.581-8.256,7.162-11.837,10.743c-1.375,1.086-2.486,2.478-3.853,3.58
	l238.397-82.58c14.052-37.438,34.417-80.119,65.235-129.402V168.481z"/>
<path fill="#FFFFFF" d="M17.271,542.349l44.312-144.541h36.063c2.486,0,4.396,0.271,6.05,1.086c1.646,0.832,2.741,1.935,3.861,3.038
	c0.832,1.357,1.366,2.478,1.646,4.124c0.279,1.375,0,2.749-0.28,3.853L72.868,527.176c-0.56,1.375-1.374,2.75-2.206,4.413
	c-0.84,1.646-2.206,3.292-3.581,4.938c-1.374,1.646-3.31,3.038-5.787,4.141c-2.206,1.104-4.955,1.646-7.976,1.646H17.255
	L17.271,542.349z M78.112,409.908L41.218,529.671h10.463l36.895-119.763H78.112z"/>
<path fill="#FFFFFF" d="M163.459,397.808l-3.861,12.389h-20.925l-15.689,50.93h20.645l-3.581,12.117h-20.645l-17.344,56.699h20.925
	l-3.581,12.117h-41.29l44.311-144.54h41.019L163.459,397.808z"/>
<path fill="#FFFFFF" d="M143.908,542.349l28.901-144.541h19.821l-14.857,66.882l25.881-66.882h20.085l-14.858,66.882l25.881-66.882
	h20.085l-59.746,144.541h-20.085l10.183-51.219l-21.205,51.219H143.908z"/>
<path fill="#FFFFFF" d="M310.18,412.402L270.544,542.06h-20.093l21.205-68.816h-10.743l-21.205,68.816h-20.085l39.636-129.657
	c0.28-1.103,1.104-2.494,1.935-4.141c1.095-1.646,2.206-3.31,3.853-4.938c1.654-1.663,3.581-3.038,5.787-4.141
	c2.215-1.104,4.675-1.663,7.722-1.663h21.477c3.038,0,5.516,0.56,6.873,1.935c1.663,1.374,2.495,2.749,3.021,4.396
	c0.544,1.646,0.849,3.309,0.577,4.955c0,1.646,0,2.749-0.288,3.581L310.18,412.402z M274.957,461.397l15.689-51.456h-10.734
	l-15.698,51.456H274.957z"/>
<path fill="#FFFFFF" d="M280.447,542.349l44.345-144.541h20.076l-40.476,131.863h21.214l-3.87,12.389h-41.289V542.349z"/>
<path fill="#FFFFFF" d="M383.137,461.397h23.946l-20.382,66.084c-0.271,0.832-0.814,2.206-1.629,3.853s-1.936,3.31-3.598,4.956
	c-1.63,1.646-3.564,3.021-5.771,4.395c-2.206,1.375-4.956,1.936-8.265,1.936h-21.757c-3.31,0-5.516-0.561-7.161-1.936
	c-1.375-1.374-2.479-2.749-3.021-4.395c-0.525-1.646-0.831-3.31-0.56-4.956s0.271-2.732,0.56-3.853l35.248-114.519
	c0.544-1.375,1.087-2.749,2.207-4.412c0.831-1.646,2.206-3.293,3.563-4.939c1.392-1.646,3.326-3.037,5.532-4.141
	c2.207-1.103,4.938-1.646,8.248-1.646h36.335l-3.853,12.39h-30.836l-36.895,119.745h10.742l17.344-56.699h-3.869l3.869-11.828
	V461.397z"/>
<path fill="#FFFFFF" d="M479.77,399.454c1.662,1.086,2.478,2.478,3.021,4.141c0.543,1.646,0.849,3.292,0.577,4.956
	c-0.289,1.646-0.289,3.021-0.577,4.378l-35.231,114.536c-0.271,1.086-1.086,2.478-1.935,4.124c-1.087,1.663-2.206,3.31-3.853,4.955
	c-1.646,1.663-3.581,3.021-5.787,4.141c-2.206,1.087-4.684,1.664-7.722,1.664h-21.468c-3.31,0-5.516-0.577-7.162-1.936
	c-1.392-1.374-2.494-2.749-3.021-4.412c-0.543-1.629-0.849-3.292-0.577-4.938c0.288-1.646,0.288-2.749,0.577-3.853l35.231-114.536
	c0.56-1.374,1.086-2.732,2.206-4.396c0.849-1.646,2.206-3.292,3.581-4.955c1.374-1.646,3.309-3.021,5.516-4.141
	c2.206-1.086,4.955-1.63,8.247-1.63h21.214c3.292,0.271,5.498,0.815,7.162,1.918V399.454z M416.162,530.231h10.76l36.895-119.764
	h-10.76L416.162,530.231z"/>
</svg>
