<?xml version="1.0" encoding="utf-8"?>
<!-- Generator: Adobe Illustrator 15.1.0, SVG Export Plug-In . SVG Version: 6.00 Build 0)  -->
<!DOCTYPE svg PUBLIC "-//W3C//DTD SVG 1.1//EN" "http://www.w3.org/Graphics/SVG/1.1/DTD/svg11.dtd">
<svg version="1.1" id="Calque_1" xmlns="http://www.w3.org/2000/svg" xmlns:xlink="http://www.w3.org/1999/xlink" x="0px" y="0px"
	 width="259.852px" height="230.594px" viewBox="0 0 259.852 230.594" enable-background="new 0 0 259.852 230.594"
	 xml:space="preserve">
<g>
	<path d="M118.226,110.628c-11.699-26.785-34.175-13.854-34.175-13.854C84.975,123.869,103.14,127.563,118.226,110.628z"/>
	<path d="M163.779,94.08c-7.313-0.024-16.313,3.499-22.305,17.272l-0.128,0.294l0.213,0.239
		c6.092,6.834,12.718,10.402,18.644,10.408c8.956,0,15.88-8.218,16.405-24.577l0.011-0.301l-0.262-0.149
		C176.316,97.246,170.836,94.084,163.779,94.08z"/>
	<path d="M158.923,165.718c-0.907-0.11-1.816-0.066-2.711,0.003c-0.898,0.067-1.78,0.208-2.657,0.349
		c-0.877,0.145-1.749,0.301-2.616,0.457c-3.457,0.64-6.892,1.336-10.221,1.348c-0.827-0.001-1.646-0.043-2.435-0.153
		c-0.725-0.115-1.395-0.32-1.994-0.653c-1.201-0.657-2.138-1.796-2.801-3.177c-0.666-1.379-1.097-2.956-1.354-4.572
		c-0.13-0.81-0.229-1.632-0.287-2.459c-0.028-0.413-0.049-0.827-0.059-1.239l-0.009-0.605v-0.002v-0.081
		c0.002-0.178,0.006-0.368,0.011-0.508l0.078-1.761l-0.456-0.002c3.813-2.074,12.275-8.371,12.369-12.476
		c0.131-5.797-7.448-8.489-13.855-8.882c-6.408,0.392-13.987,3.085-13.854,8.882c0.093,4.102,8.317,10.391,12.26,12.471l0.058,1.768
		c0.005,0.158,0.009,0.384,0.009,0.58l-0.007,0.616c-0.01,0.412-0.032,0.826-0.059,1.239c-0.059,0.827-0.156,1.649-0.289,2.458
		c-0.26,1.616-0.687,3.194-1.354,4.571c-0.664,1.382-1.602,2.517-2.801,3.176c-0.602,0.331-1.27,0.539-1.992,0.65
		c-0.791,0.109-1.607,0.153-2.435,0.155c-3.328-0.013-6.762-0.709-10.219-1.348c-0.867-0.157-1.74-0.313-2.618-0.456
		c-0.877-0.14-1.759-0.279-2.657-0.349c-0.896-0.068-1.803-0.111-2.711-0.003c-0.453,0.062-0.904,0.16-1.329,0.328
		c-0.423,0.176-0.812,0.432-1.097,0.772c0.353-0.271,0.761-0.429,1.174-0.521c0.419-0.079,0.846-0.092,1.272-0.068
		c0.852,0.036,1.701,0.213,2.539,0.416c1.682,0.422,3.348,0.951,5.024,1.491c1.681,0.526,3.381,1.046,5.125,1.478
		c1.743,0.431,3.533,0.779,5.392,0.918c0.931,0.063,1.875,0.079,2.837,0.012c1.024-0.088,2.077-0.351,3.044-0.815
		c0.97-0.462,1.843-1.121,2.554-1.885c0.717-0.763,1.291-1.615,1.758-2.492c0.201-0.381,0.378-0.764,0.542-1.151
		c0.164,0.388,0.341,0.771,0.542,1.148c0.468,0.878,1.041,1.729,1.757,2.492c0.711,0.765,1.585,1.421,2.554,1.883
		c0.968,0.466,2.02,0.729,3.044,0.815c0.959,0.065,1.904,0.051,2.836-0.013c1.856-0.14,3.647-0.485,5.393-0.917
		c1.743-0.431,3.441-0.949,5.122-1.477c1.678-0.539,3.345-1.067,5.026-1.489c0.839-0.205,1.688-0.379,2.538-0.415
		c0.428-0.023,0.854-0.011,1.272,0.069c0.414,0.092,0.821,0.247,1.174,0.521c-0.285-0.342-0.674-0.598-1.097-0.771
		C159.826,165.876,159.375,165.778,158.923,165.718z"/>
	<path d="M240.558,150.437c-8.015-5.462-14.75-12.683-19.635-21.091l-2.734-4.705l17.689,10.742
		c-5.12-8.16-10.62-15.675-16.396-23.354l-1.668-1.735h2.775c14.525,0,29.451-1.254,39.262-10.021
		c-6.34-1.836-12.451-4.152-17.931-7.664c-7.003-4.484-11.771-11.041-13.08-17.775l-0.44-2.327l2.208,0.651
		c4.901,1.508,9.619,3.713,13.938,6.522c-7.877-10.402-19.398-18.175-32.021-21.349l-2.805-0.709l2.31-1.746
		c11.588-8.76,17.611-24.538,14.961-38.813c-14.979,3.953-30.405,6.334-45.877,7.083l-2.434,0.118l1.143-2.151
		c4.567-8.605,13.802-12.924,23.445-16.242c-5.493-1.828-11.31-2.755-17.345-2.755c-13.248,0-26.412,4.678-36.118,12.83
		l-2.767,2.324l0.504-3.579c0.654-4.644,1.366-9.707,1.215-14.691c-3.138,9.425-9.396,19.229-17.847,27.772l-0.985,0.996
		l-0.984-0.996C120.488,19.229,114.232,9.426,111.094,0c-0.152,4.985,0.561,10.049,1.216,14.692l0.503,3.579l-2.767-2.324
		c-9.706-8.152-22.871-12.83-36.118-12.83c-6.035,0-11.854,0.927-17.345,2.755c9.645,3.318,18.879,7.637,23.445,16.242l1.144,2.151
		l-2.432-0.118c-15.475-0.749-30.9-3.131-45.88-7.084c-2.65,14.273,3.373,30.052,14.964,38.813l2.306,1.744l-2.804,0.705
		C34.703,61.499,23.18,69.265,15.304,79.669c4.32-2.813,9.038-5.033,13.938-6.541l2.209-0.683l-0.44,2.269
		c-1.31,6.733-6.076,13.168-13.078,17.655C12.45,95.88,6.339,98.44,0,100.274c9.81,8.767,24.737,10.021,39.262,10.021h2.777
		l-1.67,1.735c-5.774,7.679-11.275,15.433-16.396,23.595l17.688-10.863l-2.733,4.646c-4.885,8.408-11.62,15.6-19.634,21.062
		c9.097-0.092,18.136-3.015,25.5-8.224l2.856-2.028l-0.698,3.426c-2.513,12.304-3.89,24.855-4.109,37.419
		c4.118-9.559,10.273-18.141,18.068-25.127l7.903-7.083l-5.819,8.874c-7.136,10.877-9.4,24.901-6.248,37.524
		c1.937-5.148,4.599-9.974,7.94-14.387l3.629-4.79L66.1,187.284l11.075-7.706l-0.604,3.306c-1.926,10.561-7.605,20.343-15.68,27.39
		c2.805-1.211,5.471-2.769,7.918-4.642c1.071-0.82,2.404-1.842,4.073-1.842c0.097,0,0.195,0.005,0.296,0.012
		c1.697,0.127,2.947,1.313,3.774,2.1l17.833,16.961c-2.485-5.389-4.333-11.048-5.515-16.905l-0.47-2.326l2.256,0.735
		c11.913,3.879,21.146,14.185,24.11,26.229l5.301-18.937l3.105,12.545c0.605-0.587,1.272-1.16,1.932-1.724
		c1.313-1.125,2.673-2.288,3.188-3.275l1.229-2.362l1.229,2.362c0.514,0.987,1.871,2.15,3.186,3.275
		c0.659,0.563,1.326,1.137,1.934,1.724l3.104-12.548l5.301,18.939c2.966-12.045,12.198-22.351,24.111-26.229l2.256-0.735
		l-0.469,2.326c-1.183,5.858-3.029,11.518-5.517,16.905l17.835-16.962c0.827-0.784,2.076-1.972,3.775-2.099
		c0.098-0.007,0.197-0.012,0.295-0.012c1.668,0,3,1.021,4.133,1.889c2.416,1.848,5.064,3.396,7.861,4.599
		c-8.076-7.047-13.757-16.83-15.687-27.394l-0.602-3.305l11.076,7.705l-2.214-11.21l3.628,4.788
		c3.342,4.414,6.004,9.238,7.938,14.386c3.151-12.624,0.885-26.647-6.248-37.523l-5.82-8.874l7.902,7.082
		c7.795,6.985,13.952,15.567,18.069,25.126c-0.22-12.563-1.598-25.118-4.107-37.421l-0.699-3.432l2.855,2.022
		C222.42,147.438,231.459,150.346,240.558,150.437z M194.763,46.393c13.238,16.625-2.771,24.938-2.771,24.938
		s2.463-4.617-1.539-6.466c-0.255,0.596-0.416,1.058-0.518,1.429c0.215,0.456,0.389,0.728,0.518,0.728
		c0.797,0-1.146,1.592-0.518-0.728c-1.321-2.812-4.303-12.904-9.336-13.436c-5.851-0.615-9.853,2.771-9.853,2.771
		s6.465-8.313,9.235-6.465c-3.077-3.694-10.774,0-10.774,0s1.848-2.463,5.541-2.771c-3.385-2.154-5.145-3.572-6.772-2.771
		C167.977,43.622,181.523,29.768,194.763,46.393z M63.885,46.351c13.239-16.625,26.786-2.771,26.786-2.771
		c-1.629-0.803-3.388,0.615-6.772,2.771c3.693,0.31,5.541,2.771,5.541,2.771s-7.696-3.694-10.774,0
		c2.771-1.849,9.235,6.465,9.235,6.465s-4.002-3.387-9.853-2.771c-5.033,0.53-8.014,10.624-9.336,13.436
		c0.63,2.318-1.313,0.728-0.518,0.728c0.13,0,0.303-0.271,0.518-0.728c-0.103-0.371-0.262-0.833-0.518-1.429
		c-4.002,1.849-1.538,6.466-1.538,6.466S50.646,62.976,63.885,46.351z M200.646,131.446c-6.291,3.849-13.617,5.883-21.19,5.883
		c-3.138,0-6.217-0.354-9.201-1.055l16.075,31.29l-6.97-7.607c-2.43-2.652-4.902-5.354-7.503-7.925
		c2.196,3.513,4.261,7.108,6.172,10.763l1.019,1.941l-2.189,0.086c-0.323,0.014-0.649,0.02-0.976,0.02
		c-2.833,0-5.691-0.493-8.386-1.427l2.231,2.948l-1.871,0.594c-3.463,1.096-7.127,1.676-10.595,1.676
		c-0.447,0-0.891-0.011-1.329-0.031c1.273,3.464,3.034,6.799,4.745,10.042l12.409,23.509l-6.526-6.558
		c-3.481-3.5-7.732-6.361-11.843-9.129c-4.116-2.771-8.35-5.621-11.955-9.183c-0.1,2.894,0.398,6.021,1.485,9.339
		c1.329,4.057,3.373,7.942,5.35,11.702l3.047,5.792l-5.132-4.061c-6.226-4.925-11.201-11.607-14.187-19.022
		c-0.146,0.694-0.321,1.383-0.527,2.065l-1.231,4.058l-1.4-4.003c-0.162-0.46-0.32-0.922-0.477-1.386
		c-0.153,0.464-0.313,0.927-0.474,1.387l-1.403,4l-1.229-4.056c-0.206-0.683-0.382-1.369-0.527-2.063
		c-2.973,7.394-7.952,14.087-14.187,19.021l-5.129,4.059l3.043-5.79c1.977-3.762,4.021-7.649,5.351-11.702
		c1.087-3.317,1.584-6.446,1.485-9.339c-3.605,3.562-7.84,6.411-11.956,9.184c-4.109,2.767-8.359,5.628-11.844,9.128l-6.523,6.556
		l12.408-23.507c1.71-3.242,3.47-6.577,4.743-10.042c-0.438,0.021-0.882,0.031-1.328,0.031c-3.47,0-7.134-0.58-10.595-1.676
		l-1.871-0.594l2.231-2.948c-2.696,0.934-5.552,1.427-8.386,1.427c-0.324,0-0.65-0.006-0.976-0.02l-2.188-0.086l1.016-1.941
		c1.913-3.652,3.978-7.249,6.172-10.762c-2.6,2.57-5.071,5.271-7.502,7.924l-6.969,7.607l16.075-31.29
		c-2.981,0.7-6.065,1.055-9.201,1.055c-7.571,0-14.901-2.033-21.192-5.883l-2.049-1.253l2.11-1.146
		c6.049-3.285,12.911-5.021,19.844-5.021c0.108,0,0.216,0,0.324,0.002c-4.783-5.188-9.297-11.244-9.987-18.526
		c-0.83-8.764,3.954-16.59,9.36-24.501l2.293-3.354l0.232,4.057c0.132,2.264,0.384,4.534,0.75,6.782
		c4.834-7.427,7.483-16.223,7.51-25.1l0.005-2.207l1.985,0.966c5.321,2.59,10.842,4.877,16.445,6.817
		c-1.604-2.472-3.972-4.529-6.127-6.404l-4.488-3.906l5.752,1.521c8.264,2.184,15.789,6.567,21.767,12.678
		c1.301,1.33,2.932,3.14,4.013,5.359c0.563,1.152,0.948,2.344,1.216,3.557c0.27-1.213,0.655-2.403,1.218-3.557
		c1.079-2.221,2.714-4.029,4.013-5.359c5.977-6.11,13.504-10.494,21.766-12.678l5.753-1.521l-4.488,3.906
		c-2.154,1.873-4.521,3.934-6.128,6.404c5.605-1.94,11.125-4.229,16.445-6.817l1.985-0.966l0.007,2.207
		c0.025,8.877,2.673,17.673,7.508,25.1c0.367-2.249,0.618-4.52,0.75-6.782l0.234-4.057L181.045,81
		c5.407,7.91,10.188,15.736,9.358,24.499c-0.688,7.286-5.201,13.34-9.984,18.528c0.107-0.002,0.216-0.002,0.324-0.002
		c6.933,0,13.795,1.736,19.843,5.021l2.111,1.146L200.646,131.446z"/>
</g>
</svg>
