<?xml version="1.0" encoding="utf-8"?>
<!-- Generator: Adobe Illustrator 15.1.0, SVG Export Plug-In . SVG Version: 6.00 Build 0)  -->
<!DOCTYPE svg PUBLIC "-//W3C//DTD SVG 1.1//EN" "http://www.w3.org/Graphics/SVG/1.1/DTD/svg11.dtd">
<svg version="1.1" id="Calque_1" xmlns="http://www.w3.org/2000/svg" xmlns:xlink="http://www.w3.org/1999/xlink" x="0px" y="0px"
	 width="203px" height="128px" viewBox="0 0 203 128" enable-background="new 0 0 203 128" xml:space="preserve">
<g>
	<g>
		<path d="M165,8H38c-2.209,0-4-1.791-4-4s1.791-4,4-4h127c2.209,0,4,1.791,4,4S167.209,8,165,8z"/>
	</g>
	<g>
		<path d="M199,68H4c-2.209,0-4-1.791-4-4s1.791-4,4-4h195c2.209,0,4,1.791,4,4S201.209,68,199,68z"/>
	</g>
	<g>
		<path d="M175,128H29c-2.209,0-4-1.791-4-4s1.791-4,4-4h146c2.209,0,4,1.791,4,4S177.209,128,175,128z"/>
	</g>
</g>
</svg>
