<?xml version="1.0" encoding="utf-8"?>
<!-- Generator: Adobe Illustrator 15.1.0, SVG Export Plug-In . SVG Version: 6.00 Build 0)  -->
<!DOCTYPE svg PUBLIC "-//W3C//DTD SVG 1.1//EN" "http://www.w3.org/Graphics/SVG/1.1/DTD/svg11.dtd">
<svg version="1.1" id="Capa_1" xmlns="http://www.w3.org/2000/svg" xmlns:xlink="http://www.w3.org/1999/xlink" x="0px" y="0px"
	 width="2000px" height="2000px" viewBox="0 0 2000 2000" enable-background="new 0 0 2000 2000" xml:space="preserve">
<g>
	<path d="M1818.112,383.401l-402.83,33.042c-49.311-168.027-179.122-296.132-337.586-328.465
		C1018.211,43.22,949.144,13.466,873.405,3.659V0h-51.822v2.95c-255.125,26.772-455.789,239.79-462.697,500.172L28.466,530.213
		l204.467,1278.428L1414.002,2000l281.402-140.215L1971.53,571.121L1818.112,383.401z M1055.34,140.418
		c84.809,68.035,145.729,171.894,165.46,291.978l-593.237,48.661c38.647-188.17,199.906-332.148,396.309-344.382
		C1034.488,137.425,1044.976,138.7,1055.34,140.418z M982.743,1128.1c-167.896-84.22-295.303-83.197-392.867-91.087l92.206-202.668
		l0.062,0.005c95.214-12.606,178.097-6.494,247.775,18.715C963.887,984.938,979.757,1115.243,982.743,1128.1z M846.401,56.817
		c42.622,3.001,83.481,13.489,121.579,30.292c-202.956,34.94-363.449,195.621-398.099,398.677l-155.308,12.74
		C423.934,262.428,611.654,71.395,846.401,56.817z M410.017,1526.123c2.586-2.009,4.786-4.592,7.397-6.53
		c6.907-6.504,14.756-12.992,22.661-19.409c15.272-12.949,32.023-25.771,49.288-38.546c17.191-12.175,34.911-24.912,52.618-37.109
		c71.765-48.637,147.059-92.034,204.127-122.803c3.608-1.854,7.221-3.772,10.755-5.089c3.567-1.315,7.179-3.232,9.829-5.71
		c5.83-5.516,11.195-10.527,16.401-15.015c10.601-9.499,19.125-18.094,26.562-25.161c7.493-7.028,13.367-13.112,17.096-16.613
		c3.744-4.071,5.875-6.086,5.875-6.086s-2.943,0.287-8.5,0.956c-5.49,0.607-12.99,1.649-22.913,2.953
		c-9.481,1.887-21.475,3.619-35.029,6.302c-7.021,1.555-14.02,3.182-21.555,4.694c-3.524,0.775-7.107,2.699-10.271,5.13
		c-3.62,2.424-7.229,4.311-10.838,6.196c-58.586,31.147-134.92,74.993-208.745,125.145c-18.261,12.656-36.492,25.349-54.252,38.655
		c-17.76,13.274-35.034,26.559-51.343,39.958c-7.905,6.419-15.753,12.906-23.702,19.896c-3.692,2.995-6.869,6-10.56,8.96
		l151.427-333.59c200.077-23.307,455.935-0.037,455.935-0.037c-62.217,92.771-104.845,174.164-135.445,246.119L410.017,1526.123z
		 M975.254,1423.698c-8.529-57.216,19.76-210.058,28.79-258.093c65.698,84.13,116.35,113.205,153.18,135.059l1.791,133.466
		C1117.599,1440.419,1048.628,1445.439,975.254,1423.698z M1013.573,1136.806c38.282-30.147,72.131-73.312,105.092-117.616
		l94.077,48.17c1.787,2.894,4.003,5.826,6.275,8.761l13.817,143.825C1129.536,1195.664,1040.532,1152.836,1013.573,1136.806z
		 M1276.581,427.82c-14.375-91.937-50.555-175.594-102.354-244.059c84.865,49.702,151.245,134.491,184.148,237.35L1276.581,427.82z
		 M1431.558,1926.245l-22.547-5.748l381.009-1495.81l22.543,5.74L1431.558,1926.245z"/>
</g>
</svg>
